<mxfile host="65bd71144e">
    <diagram id="O-F153yCXJCY_Mj2GWea" name="ページ1">
        <mxGraphModel dx="1749" dy="1811" grid="1" gridSize="10" guides="1" tooltips="1" connect="1" arrows="1" fold="1" page="1" pageScale="1" pageWidth="827" pageHeight="1169" math="0" shadow="0">
            <root>
                <mxCell id="0"/>
                <mxCell id="1" parent="0"/>
                <mxCell id="2" value="ログイン" style="text;html=1;align=center;verticalAlign=middle;resizable=0;points=[];autosize=1;strokeColor=none;fillColor=none;" vertex="1" parent="1">
                    <mxGeometry x="15" y="45" width="70" height="30" as="geometry"/>
                </mxCell>
                <mxCell id="11" value="" style="edgeStyle=none;html=1;" edge="1" parent="1" source="9" target="10">
                    <mxGeometry relative="1" as="geometry"/>
                </mxCell>
                <mxCell id="9" value="ログインメイン&lt;br&gt;(google認証？)" style="whiteSpace=wrap;html=1;" vertex="1" parent="1">
                    <mxGeometry x="-20" y="80" width="120" height="60" as="geometry"/>
                </mxCell>
                <mxCell id="14" value="" style="edgeStyle=none;html=1;" edge="1" parent="1" source="10" target="13">
                    <mxGeometry relative="1" as="geometry"/>
                </mxCell>
                <mxCell id="10" value="自分の登録&lt;br&gt;名前&lt;br&gt;ニックネーム&lt;br&gt;メールアドレス&lt;br&gt;生年月日&lt;br&gt;&lt;br&gt;" style="whiteSpace=wrap;html=1;" vertex="1" parent="1">
                    <mxGeometry x="180" y="40" width="100" height="140" as="geometry"/>
                </mxCell>
                <mxCell id="16" value="" style="edgeStyle=none;html=1;" edge="1" parent="1" source="13" target="15">
                    <mxGeometry relative="1" as="geometry"/>
                </mxCell>
                <mxCell id="13" value="相手の登録&lt;br&gt;名前&lt;br&gt;ニックネーム&lt;br&gt;メールアドレス&lt;br&gt;生年月日&lt;br&gt;" style="whiteSpace=wrap;html=1;" vertex="1" parent="1">
                    <mxGeometry x="360" y="40" width="100" height="140" as="geometry"/>
                </mxCell>
                <mxCell id="15" value="相手を招待する" style="whiteSpace=wrap;html=1;" vertex="1" parent="1">
                    <mxGeometry x="540" y="40" width="100" height="140" as="geometry"/>
                </mxCell>
                <mxCell id="20" value="" style="edgeStyle=none;html=1;" edge="1" parent="1" source="17" target="19">
                    <mxGeometry relative="1" as="geometry"/>
                </mxCell>
                <mxCell id="22" value="" style="edgeStyle=none;html=1;" edge="1" parent="1" source="17" target="21">
                    <mxGeometry relative="1" as="geometry">
                        <Array as="points">
                            <mxPoint x="100" y="450"/>
                        </Array>
                    </mxGeometry>
                </mxCell>
                <mxCell id="24" value="" style="edgeStyle=none;html=1;" edge="1" parent="1" source="17" target="23">
                    <mxGeometry relative="1" as="geometry">
                        <Array as="points">
                            <mxPoint x="50" y="555"/>
                        </Array>
                    </mxGeometry>
                </mxCell>
                <mxCell id="33" value="" style="edgeStyle=none;html=1;exitX=0.25;exitY=1;exitDx=0;exitDy=0;" edge="1" parent="1" source="17" target="32">
                    <mxGeometry relative="1" as="geometry">
                        <Array as="points">
                            <mxPoint x="20" y="660"/>
                        </Array>
                    </mxGeometry>
                </mxCell>
                <mxCell id="17" value="チャット&lt;br&gt;スケジュール&lt;br&gt;フラワー&lt;br&gt;設定(?)&lt;br&gt;今のコンディション" style="whiteSpace=wrap;html=1;" vertex="1" parent="1">
                    <mxGeometry x="-10" y="300" width="120" height="80" as="geometry"/>
                </mxCell>
                <mxCell id="18" value="ホーム" style="text;html=1;align=center;verticalAlign=middle;resizable=0;points=[];autosize=1;strokeColor=none;fillColor=none;" vertex="1" parent="1">
                    <mxGeometry x="20" y="275" width="60" height="30" as="geometry"/>
                </mxCell>
                <mxCell id="27" value="" style="edgeStyle=none;html=1;" edge="1" parent="1" source="19" target="21">
                    <mxGeometry relative="1" as="geometry"/>
                </mxCell>
                <mxCell id="30" style="edgeStyle=none;html=1;exitX=0;exitY=0.75;exitDx=0;exitDy=0;entryX=0;entryY=0.25;entryDx=0;entryDy=0;" edge="1" parent="1" source="19" target="23">
                    <mxGeometry relative="1" as="geometry">
                        <Array as="points">
                            <mxPoint x="130" y="380"/>
                            <mxPoint x="130" y="525"/>
                        </Array>
                    </mxGeometry>
                </mxCell>
                <mxCell id="19" value="チャット&lt;br&gt;表現をやさしく&lt;br&gt;" style="whiteSpace=wrap;html=1;" vertex="1" parent="1">
                    <mxGeometry x="190" y="310" width="120" height="60" as="geometry"/>
                </mxCell>
                <mxCell id="21" value="夫婦のカレンダー&lt;br&gt;(googleカレンダー連携？)" style="whiteSpace=wrap;html=1;" vertex="1" parent="1">
                    <mxGeometry x="190" y="420" width="120" height="60" as="geometry"/>
                </mxCell>
                <mxCell id="23" value="ありがとうと愛してるで&lt;br&gt;ポイント加算" style="whiteSpace=wrap;html=1;" vertex="1" parent="1">
                    <mxGeometry x="190" y="524.5" width="120" height="60" as="geometry"/>
                </mxCell>
                <mxCell id="28" value="チャット内容をカレンダー／リマインド" style="text;html=1;align=center;verticalAlign=middle;resizable=0;points=[];autosize=1;strokeColor=none;fillColor=none;" vertex="1" parent="1">
                    <mxGeometry x="230" y="380" width="240" height="30" as="geometry"/>
                </mxCell>
                <mxCell id="29" value="価値観をすり合わせるためのなにか？" style="text;html=1;align=center;verticalAlign=middle;resizable=0;points=[];autosize=1;strokeColor=none;fillColor=none;" vertex="1" parent="1">
                    <mxGeometry x="435" y="-65" width="230" height="30" as="geometry"/>
                </mxCell>
                <mxCell id="31" value="ありがとうと愛しているをカウント" style="text;html=1;align=center;verticalAlign=middle;resizable=0;points=[];autosize=1;strokeColor=none;fillColor=none;" vertex="1" parent="1">
                    <mxGeometry x="100" y="490" width="210" height="30" as="geometry"/>
                </mxCell>
                <mxCell id="32" value="今のコンディションを相手に送信／&lt;br&gt;相手からの送信されたコンディションを&lt;br&gt;表示" style="whiteSpace=wrap;html=1;" vertex="1" parent="1">
                    <mxGeometry x="190" y="620" width="120" height="80" as="geometry"/>
                </mxCell>
                <mxCell id="36" value="" style="edgeStyle=none;html=1;startArrow=none;" edge="1" parent="1" source="39" target="35">
                    <mxGeometry relative="1" as="geometry"/>
                </mxCell>
                <mxCell id="49" value="" style="edgeStyle=none;html=1;" edge="1" parent="1" source="34" target="37">
                    <mxGeometry relative="1" as="geometry"/>
                </mxCell>
                <mxCell id="54" style="edgeStyle=none;html=1;exitX=0.25;exitY=0;exitDx=0;exitDy=0;entryX=0;entryY=0.5;entryDx=0;entryDy=0;" edge="1" parent="1" source="34" target="52">
                    <mxGeometry relative="1" as="geometry"/>
                </mxCell>
                <mxCell id="34" value="main.dart" style="whiteSpace=wrap;html=1;" vertex="1" parent="1">
                    <mxGeometry x="-780" y="-1080" width="90" height="40" as="geometry"/>
                </mxCell>
                <mxCell id="38" value="" style="edgeStyle=none;html=1;entryX=0;entryY=0.25;entryDx=0;entryDy=0;exitX=0.5;exitY=1;exitDx=0;exitDy=0;" edge="1" parent="1" source="58" target="37">
                    <mxGeometry relative="1" as="geometry">
                        <mxPoint x="-180" y="-1020" as="targetPoint"/>
                        <Array as="points">
                            <mxPoint x="-340" y="-1000"/>
                        </Array>
                    </mxGeometry>
                </mxCell>
                <mxCell id="42" value="" style="edgeStyle=none;html=1;" edge="1" parent="1" target="41">
                    <mxGeometry relative="1" as="geometry">
                        <mxPoint x="-280" y="-1065" as="sourcePoint"/>
                    </mxGeometry>
                </mxCell>
                <mxCell id="55" style="edgeStyle=none;html=1;exitX=0.25;exitY=0;exitDx=0;exitDy=0;entryX=0.29;entryY=1.009;entryDx=0;entryDy=0;entryPerimeter=0;" edge="1" parent="1" source="35" target="52">
                    <mxGeometry relative="1" as="geometry"/>
                </mxCell>
                <mxCell id="59" value="" style="edgeStyle=none;html=1;" edge="1" parent="1" source="35" target="58">
                    <mxGeometry relative="1" as="geometry"/>
                </mxCell>
                <mxCell id="35" value="login.dart" style="whiteSpace=wrap;html=1;" vertex="1" parent="1">
                    <mxGeometry x="-540" y="-1085" width="100" height="40" as="geometry"/>
                </mxCell>
                <mxCell id="37" value="top.dart" style="whiteSpace=wrap;html=1;" vertex="1" parent="1">
                    <mxGeometry x="-180" y="-990" width="90" height="150" as="geometry"/>
                </mxCell>
                <mxCell id="40" value="既存ユーザー" style="text;html=1;align=center;verticalAlign=middle;resizable=0;points=[];autosize=1;strokeColor=none;fillColor=none;" vertex="1" parent="1">
                    <mxGeometry x="-254" y="-1030" width="90" height="30" as="geometry"/>
                </mxCell>
                <mxCell id="44" value="" style="edgeStyle=none;html=1;" edge="1" parent="1" source="41" target="37">
                    <mxGeometry relative="1" as="geometry"/>
                </mxCell>
                <mxCell id="41" value="user_entry.dart" style="whiteSpace=wrap;html=1;" vertex="1" parent="1">
                    <mxGeometry x="-120" y="-1080" width="90" height="40" as="geometry"/>
                </mxCell>
                <mxCell id="43" value="新規ユーザー" style="text;html=1;align=center;verticalAlign=middle;resizable=0;points=[];autosize=1;strokeColor=none;fillColor=none;" vertex="1" parent="1">
                    <mxGeometry x="-200" y="-1080" width="90" height="30" as="geometry"/>
                </mxCell>
                <mxCell id="48" value="[ユーザー登録]&lt;br&gt;メールアドレス&lt;br&gt;名前&lt;br&gt;電話番号&lt;br&gt;ニックネーム&lt;br&gt;生年月日&lt;br&gt;記念日(複数)&lt;br&gt;" style="whiteSpace=wrap;html=1;fillColor=#60a917;fontColor=#ffffff;strokeColor=#2D7600;" vertex="1" parent="1">
                    <mxGeometry x="-770" y="-990" width="120" height="160" as="geometry"/>
                </mxCell>
                <mxCell id="50" value="既存(uid有)でログイン済み" style="text;html=1;align=center;verticalAlign=middle;resizable=0;points=[];autosize=1;strokeColor=none;fillColor=none;" vertex="1" parent="1">
                    <mxGeometry x="-640" y="-990" width="170" height="30" as="geometry"/>
                </mxCell>
                <mxCell id="51" value="未ログイン&lt;br&gt;(uid無)" style="text;html=1;align=center;verticalAlign=middle;resizable=0;points=[];autosize=1;strokeColor=none;fillColor=none;" vertex="1" parent="1">
                    <mxGeometry x="-620" y="-1090" width="80" height="40" as="geometry"/>
                </mxCell>
                <mxCell id="53" style="edgeStyle=none;html=1;exitX=0;exitY=1;exitDx=0;exitDy=0;entryX=0.666;entryY=-0.055;entryDx=0;entryDy=0;entryPerimeter=0;" edge="1" parent="1" source="52" target="34">
                    <mxGeometry relative="1" as="geometry"/>
                </mxCell>
                <mxCell id="56" style="edgeStyle=none;html=1;exitX=0.5;exitY=1;exitDx=0;exitDy=0;entryX=0.75;entryY=0;entryDx=0;entryDy=0;" edge="1" parent="1" source="52" target="35">
                    <mxGeometry relative="1" as="geometry"/>
                </mxCell>
                <mxCell id="52" value="firebase" style="ellipse;whiteSpace=wrap;html=1;fillColor=#fa6800;fontColor=#000000;strokeColor=#C73500;" vertex="1" parent="1">
                    <mxGeometry x="-510" y="-1160" width="320" height="40" as="geometry"/>
                </mxCell>
                <mxCell id="57" value="" style="edgeStyle=none;html=1;endArrow=none;" edge="1" parent="1" source="34" target="39">
                    <mxGeometry relative="1" as="geometry">
                        <mxPoint x="-690" y="-1060" as="sourcePoint"/>
                        <mxPoint x="-539.9999999999998" y="-1060" as="targetPoint"/>
                    </mxGeometry>
                </mxCell>
                <mxCell id="39" value="自動遷移" style="text;html=1;align=center;verticalAlign=middle;resizable=0;points=[];autosize=1;strokeColor=none;fillColor=none;" vertex="1" parent="1">
                    <mxGeometry x="-690" y="-1075" width="70" height="30" as="geometry"/>
                </mxCell>
                <mxCell id="58" value="registar.dart" style="whiteSpace=wrap;html=1;" vertex="1" parent="1">
                    <mxGeometry x="-400" y="-1085" width="90" height="40" as="geometry"/>
                </mxCell>
            </root>
        </mxGraphModel>
    </diagram>
</mxfile>